<svg id="Layer_1" data-name="Layer 1" xmlns="http://www.w3.org/2000/svg" viewBox="0 0 288.26 112.86">
<defs><style>.cls-1{fill:#b1b1d8;}</style>
</defs>
<path class="cls-1" d="M287.79,58.19a6.62,6.62,0,0,0-2.92-3.11l-.2-.1a5.62,5.62,0,0,0-4.68.11,6.27,6.27,0,0,0-3,3,4.71,4.71,0,0,0-.55,1.24.82.82,0,0,1-.11.25l-.35.53v.15l-.1.19q-2.52,4.41-5.1,8.8c-1.69,2.89-3.48,5.84-5.34,8.8a39.84,39.84,0,0,1-3.23,4.61,24.34,24.34,0,0,1-3.89,3.84c-.89.66-1.65,1.19-2.26,1.6a1.22,1.22,0,0,1-.37.17,1.18,1.18,0,0,1-.51-.36,18,18,0,0,1-3.84-7.11,40.86,40.86,0,0,1-.9-5.63l0-.15,0-.12c.19-.42.36-.82.52-1.21a137.93,137.93,0,0,0,15.5-32.1,83.21,83.21,0,0,0,3.63-19.78,57.28,57.28,0,0,0-.33-6.08,24.44,24.44,0,0,0-1.47-6.18,16.64,16.64,0,0,0-3.46-5.39A13.55,13.55,0,0,0,259.77.78,13,13,0,0,0,253.7.1a15.14,15.14,0,0,0-6.19,2.19c-.89.62-1.77,1.3-2.61,2a23,23,0,0,0-2.33,2.27A29,29,0,0,0,238,12.4a46.17,46.17,0,0,0-3.08,6.28,74.81,74.81,0,0,0-3.57,10.51c-.9,3.5-1.65,7.13-2.24,10.76a102.33,102.33,0,0,0-1.25,20.66c-2.33,4.21-4.69,8.28-7,12.09-2.89,4.71-5.69,8.85-8.3,12.28-.9,1.14-1.82,2.22-2.74,3.21l-1,1.16c.06-.34.11-.67.17-1a31.55,31.55,0,0,1,1-3.86q1.64-5.42,3.27-10.77c1.09-3.55,2.22-7.13,3.42-10.82.43-1.55.81-3.09,1.16-4.64s.64-3.1.87-4.49a10,10,0,0,0-.15-5.25,7.08,7.08,0,0,0-5.86-5.14,6.54,6.54,0,0,0-4.13.6,7.83,7.83,0,0,0-2.62,2.27c-.54-.42-1.09-.85-1.63-1.29a21.15,21.15,0,0,0-3.91-2.55A24.8,24.8,0,0,0,187,40a23,23,0,0,0-12.34,5.73A40.38,40.38,0,0,0,161.37,66.7c-.49.84-1,1.68-1.46,2.51-1.7,2.91-3.49,5.86-5.34,8.8a40.34,40.34,0,0,1-3.23,4.61,25.28,25.28,0,0,1-3.89,3.85c-.89.65-1.65,1.18-2.26,1.59a1,1,0,0,1-.37.17,1.18,1.18,0,0,1-.51-.36,14.09,14.09,0,0,1-1.72-2.3,13.51,13.51,0,0,1-2.12-4.81,38.46,38.46,0,0,1-.9-5.63l0-.15,0-.12c.19-.42.37-.82.53-1.21a138.33,138.33,0,0,0,15.5-32.1,83.39,83.39,0,0,0,3.63-19.78,57.28,57.28,0,0,0-.33-6.08,24.55,24.55,0,0,0-1.47-6.18A16.81,16.81,0,0,0,154,4.12,13.55,13.55,0,0,0,148.91.78,13,13,0,0,0,142.84.1a15.14,15.14,0,0,0-6.19,2.19c-.89.62-1.77,1.3-2.61,2a23,23,0,0,0-2.33,2.27,28.85,28.85,0,0,0-4.55,5.84,46.17,46.17,0,0,0-3.08,6.28,73.13,73.13,0,0,0-3.57,10.51c-.89,3.48-1.65,7.1-2.24,10.76A102.43,102.43,0,0,0,117,61.19c-.33.65-.66,1.3-1,2l-2.21,4.41c-.7,1.42-1.43,2.83-2.12,4.13a32.89,32.89,0,0,1-3.61,4.92,24.12,24.12,0,0,1-4.49,3.9,15,15,0,0,1-4.59,2.22,14.56,14.56,0,0,1-5.14.43,9.88,9.88,0,0,1-2.69-.56,5.44,5.44,0,0,1-1.9-1.22A6.55,6.55,0,0,1,88,79.25c0-.1-.08-.19-.11-.29a13.38,13.38,0,0,0,5.39.08,18.25,18.25,0,0,0,9-3.63,44.29,44.29,0,0,0,10.31-9.91,18.71,18.71,0,0,0,3.74-8.87,17.16,17.16,0,0,0-1.08-9,18.84,18.84,0,0,0-5.45-7.24,19.61,19.61,0,0,0-9.08-4.1,20.8,20.8,0,0,0-8.82.21A28,28,0,0,0,83.71,40a35.15,35.15,0,0,0-8.38,7.36A36.5,36.5,0,0,0,69.58,57c-.14.07-.3.11-.44.18l-2,1c-.27.14-.49.24-.66.31a3.71,3.71,0,0,0-1.06.64A10.72,10.72,0,0,1,64,59.9,17.08,17.08,0,0,0,61.84,61h0q-.42-.77-1-1.62a15.76,15.76,0,0,0-8.56-6.5,15.45,15.45,0,0,0-10.75.7,32.83,32.83,0,0,0-6.46,3.64l-1.25.93q2.54-3.48,4.88-7.1c3.45-5.35,6.74-10.88,9.76-16.43A36.38,36.38,0,0,0,53.15,19a17.11,17.11,0,0,0-.95-7.25,14.08,14.08,0,0,0-3.7-5.53,13.75,13.75,0,0,0-5.86-3.13,18.32,18.32,0,0,0-7.21-.3A26.59,26.59,0,0,0,25.31,6.1a44.87,44.87,0,0,0-8.22,6.1A48.12,48.12,0,0,0,9.32,22,59.18,59.18,0,0,0,4.09,33.31,72.38,72.38,0,0,0,.46,50.24,116.21,116.21,0,0,0,.21,67.57C.29,68.52.49,70,.79,72s.66,4.07,1.08,6.36.89,4.6,1.4,6.93,1,4.41,1.53,6a38.23,38.23,0,0,0,3.52,9.05,13.28,13.28,0,0,0,1.95,3.07,22.94,22.94,0,0,0,2.45,2.5,7.24,7.24,0,0,0,5.09,1.7,12.25,12.25,0,0,0,4.7-1.35l.2-.11A9.15,9.15,0,0,0,26,102.8a8.16,8.16,0,0,0,.73-4.74,20.21,20.21,0,0,1,.23-5.26,17,17,0,0,1,1.59-4.86,43.6,43.6,0,0,1,6.72-10.22,49.46,49.46,0,0,1,9.21-8,7.29,7.29,0,0,1,2.28-1.21,5.7,5.7,0,0,1,.79,1.39,7.78,7.78,0,0,1-.7.54A50.63,50.63,0,0,0,38,78.34a36.94,36.94,0,0,0-6.29,10.18A36,36,0,0,0,30,93.88a18.76,18.76,0,0,0-.35,5.86,16.62,16.62,0,0,0,2.1,6.56,12.95,12.95,0,0,0,10.32,6.51c.38,0,.75,0,1.13,0a14.79,14.79,0,0,0,5.68-1.2,25.68,25.68,0,0,0,4.59-2.33,13.9,13.9,0,0,0,3.86-3.74,36.21,36.21,0,0,0,2.68-4,26,26,0,0,0,2-4.4,57.52,57.52,0,0,0,3-11.06,49.58,49.58,0,0,0,.53-11.36V74l.15-.1,1-.59.18-.09a32.89,32.89,0,0,0,2.22,9.47,25.26,25.26,0,0,0,7.22,10.08,23.62,23.62,0,0,0,11.37,4.91,31.81,31.81,0,0,0,5.61.51,28,28,0,0,0,7.46-1,30.75,30.75,0,0,0,11.41-6A50.17,50.17,0,0,0,121,82.11c.14.4.24.8.38,1.2.69,2,1.45,3.92,2.27,5.77a28.15,28.15,0,0,0,3.26,5.54,23.64,23.64,0,0,0,8.84,7.88,16.38,16.38,0,0,0,7.6,1.94h.27a13.54,13.54,0,0,0,7.71-2.67A34.56,34.56,0,0,0,155,99.09a24.4,24.4,0,0,0,3.3-3.43c1.44-1.79,2.87-3.67,4.23-5.59.28-.39.52-.79.78-1.18.14.22.26.44.4.66a14,14,0,0,0,19.52,4.87,22.89,22.89,0,0,0,3.31-2.14c1-.74,1.89-1.51,2.85-2.38,1.19-1.19,2.35-2.44,3.44-3.7l.49-.57c-.05.56-.1,1.12-.14,1.68-.13,1.66-.23,3.29-.32,5A17.67,17.67,0,0,0,194.06,99a12.65,12.65,0,0,0,3.18,5.2,11,11,0,0,0,4.83,2.78,9.92,9.92,0,0,0,2.6.34,11.77,11.77,0,0,0,3-.4,13.68,13.68,0,0,0,5.41-3.07,39.94,39.94,0,0,0,4.38-5.19c1-1.41,2-2.83,3.06-4.24s2.07-2.91,3-4.31L226,86.56c.9-1.24,1.81-2.62,2.77-4.19.72-1.12,1.41-2.22,2.09-3.3.42,1.42.84,2.83,1.34,4.24.69,2,1.46,3.93,2.27,5.76a27.94,27.94,0,0,0,3.26,5.55,23.64,23.64,0,0,0,8.84,7.88,16.42,16.42,0,0,0,7.61,1.94h.27a13.54,13.54,0,0,0,7.7-2.67,34.27,34.27,0,0,0,3.63-2.68,24.4,24.4,0,0,0,3.3-3.43c1.44-1.79,2.87-3.67,4.23-5.59a45.69,45.69,0,0,0,3.62-6c.52-.86,1-1.72,1.49-2.59s.92-1.63,1.45-2.53c1.1-2,2.15-4,3.12-6s1.8-3.64,2.48-5.09,1.41-3.13,2.15-4.92A5.56,5.56,0,0,0,287.79,58.19ZM256,27.33a60.71,60.71,0,0,1-2.86,10.53c-1,2.72-2.17,5.46-3.41,8.14.09-1.44.19-2.87.29-4.3.29-4.25.65-8.6,1.06-12.92v0a30,30,0,0,1,1-5.72A49.21,49.21,0,0,1,254,17.41c.34-.6.64-1.19.9-1.75a3,3,0,0,1,.59-.85l.22-.26c.22.83.45,1.67.67,2.53a8.89,8.89,0,0,1,.31,2.3A46,46,0,0,1,256,27.33ZM196.12,60.62c-2.6,3.06-5.38,6-8.27,8.84a94,94,0,0,1-8.25,7.14,5.27,5.27,0,0,1,.12-1.78,24.7,24.7,0,0,1,8-14.27,5.06,5.06,0,0,1,1.52-1,10.15,10.15,0,0,1,2-.68,11.11,11.11,0,0,1,2.11-.24,2.73,2.73,0,0,1,1.19.19A5.11,5.11,0,0,1,196.12,60.62Zm-51-33.29a60.84,60.84,0,0,1-2.86,10.52c-1,2.74-2.18,5.48-3.41,8.15.09-1.44.19-2.88.29-4.3.29-4.25.65-8.6,1.06-12.92v0a30.16,30.16,0,0,1,1-5.72,48.55,48.55,0,0,1,1.94-5.61c.34-.61.65-1.19.9-1.75a2.77,2.77,0,0,1,.59-.84l.22-.27c.22.83.45,1.67.67,2.52a9.48,9.48,0,0,1,.31,2.31A45.89,45.89,0,0,1,145.11,27.33ZM88.69,65.89c-.57.19-1.16.35-1.75.49A26.34,26.34,0,0,1,89,60a17,17,0,0,1,6-6.8,5.89,5.89,0,0,1,1.62-.7c.72-.18,1.43-.36,2.11-.51A2.45,2.45,0,0,1,101.22,53a2.93,2.93,0,0,1,.24,3,10.89,10.89,0,0,1-1,1.61,44.37,44.37,0,0,1-3.73,4,21.91,21.91,0,0,1-4.09,3,5.51,5.51,0,0,1-1.59.7c-.72.2-1.43.38-2.15.54ZM48.29,88.72a34.61,34.61,0,0,1-1.34,5,10.17,10.17,0,0,1-1.73,2.76,3.44,3.44,0,0,1-.86.66,5.4,5.4,0,0,1,.15-1,14.72,14.72,0,0,1,1.62-3.78A29.07,29.07,0,0,1,48.29,88.72ZM18.75,75c-.47.75-.93,1.51-1.37,2.29l-.06-.19a1.34,1.34,0,0,1,0-.58,5.84,5.84,0,0,1,1.16-1.27Zm-.3-25c.19-1.35.41-2.71.66-4.1v0a53.45,53.45,0,0,1,1.7-7.15c.74-2.4,1.57-4.81,2.41-7a42.76,42.76,0,0,1,3.91-6.72,25,25,0,0,1,5.18-5.35,10.68,10.68,0,0,1,2.07-1.28c.84-.4,1.66-.76,2.43-1.07L37,17.1c0,.11,0,.23,0,.38-.08.63-.18,1.26-.29,1.89a6.77,6.77,0,0,1-.43,1.42c-.68,1.53-1.33,3.06-2,4.58a34.12,34.12,0,0,1-2,4.06q-4.14,6.3-8.35,12.45C22.11,44.54,20.29,47.22,18.45,49.92Z"/>
</svg>